<svg height="512pt" viewBox="0 0 512 512" width="512pt" xmlns="http://www.w3.org/2000/svg" xmlns:xlink="http://www.w3.org/1999/xlink"><linearGradient id="a" gradientUnits="userSpaceOnUse" x1="0" x2="512" y1="256" y2="256"><stop offset="0" stop-color="#00f38d"/><stop offset="1" stop-color="#009eff"/></linearGradient><path d="m512 256c0 141.386719-114.613281 256-256 256s-256-114.613281-256-256 114.613281-256 256-256 256 114.613281 256 256zm0 0" fill="url(#a)"/><g fill="#fff"><path d="m241.597656 275.902344h28.175782v28.179687h-28.175782zm0 0"/><path d="m158.117188 368.285156h195.765624c21.652344 0 39.269532-17.613281 39.269532-39.265625v-196.394531c0-21.652344-17.617188-39.269531-39.269532-39.269531h-195.765624c-21.652344 0-39.269532 17.617187-39.269532 39.269531v246.75c0 21.652344 17.617188 39.269531 39.269532 39.269531h195.765624c21.652344 0 39.269532-17.617187 39.269532-39.300781v-3.003906l-2.402344 1.804687c-10.710938 8.0625-23.460938 12.320313-36.863281 12.320313h-195.769531c-6.113282 0-11.089844-4.976563-11.089844-11.089844s4.976562-11.089844 11.089844-11.089844zm206.855468-39.265625c0 6.113281-4.976562 11.089844-11.089844 11.089844h-195.765624c-3.78125 0-7.5.535156-11.089844 1.59375v-209.078125c0-6.117188 4.976562-11.089844 11.089844-11.089844h195.765624c6.113282 0 11.089844 4.972656 11.089844 11.089844zm0 0"/><path d="m261.179688 154.085938c-13.582032-1.511719-27.164063 2.8125-37.257813 11.851562-9.972656 8.921875-15.6875 21.691406-15.6875 35.035156v1.5h28.179687v-1.5c0-5.417968 2.238282-10.402344 6.300782-14.042968 4.195312-3.75 9.648437-5.472657 15.359375-4.839844 8.773437.976562 15.835937 7.980468 16.789062 16.664062.667969 6.074219-2.363281 12-10.140625 19.8125-1.972656 1.980469-3.804687 3.730469-5.582031 5.425782-9.414063 8.976562-17.542969 16.730468-17.542969 33.890624v2.132813h28.179688v-2.132813c0-4.765624.578125-5.648437 8.8125-13.5 1.710937-1.632812 3.84375-3.664062 6.105468-5.9375 8.84375-8.886718 20.355469-22.984374 18.179688-42.769531-2.382812-21.683593-19.917969-39.175781-41.695312-41.589843zm0 0"/></g></svg>