<?xml version="1.0" encoding="iso-8859-1"?>
<!-- Generator: Adobe Illustrator 19.0.0, SVG Export Plug-In . SVG Version: 6.00 Build 0)  -->
<svg xmlns="http://www.w3.org/2000/svg" xmlns:xlink="http://www.w3.org/1999/xlink" version="1.1" id="Layer_1" x="0px" y="0px" viewBox="0 0 512 512" style="enable-background:new 0 0 512 512;" xml:space="preserve" width="512" height="512">
<linearGradient id="SVGID_1_" gradientUnits="userSpaceOnUse" x1="215.5" y1="-6.981281e-009" x2="215.5" y2="512">
	<stop offset="0" style="stop-color:#2AF598"/>
	<stop offset="1" style="stop-color:#009EFD"/>
</linearGradient>
<path style="fill:url(#SVGID_1_);" d="M60,432h311c33.084,0,60-26.916,60-60V60c0-33.084-26.916-60-60-60H60C26.916,0,0,26.916,0,60  v392c0,33.084,26.916,60,60,60h291h20c33.084,0,60-26.916,60-60v-0.05C414.275,464.533,393.494,472,371,472h-20H60  c-11.028,0-20-8.972-20-20S48.972,432,60,432z M40,60c0-11.028,8.972-20,20-20h311c11.028,0,20,8.972,20,20v312  c0,11.028-8.972,20-20,20H60c-7.009,0-13.742,1.208-20,3.427V60z M182,168.58h-40c0-20.518,8.794-40.157,24.128-53.884  c15.535-13.908,36.433-20.556,57.34-18.234c33.493,3.717,60.463,30.617,64.129,63.964c3.343,30.414-14.493,52.238-28.2,66.008  c-3.528,3.544-6.784,6.649-9.657,9.39c-13.069,12.464-14.734,14.56-14.734,23.172V260h-40v-1.005  c0-26.247,12.572-38.236,27.129-52.119c2.828-2.697,5.753-5.486,8.913-8.661c12.917-12.977,17.938-22.971,16.79-33.419  c-1.638-14.89-13.741-26.909-28.781-28.578c-9.746-1.078-19.074,1.858-26.249,8.282C185.838,150.738,182,159.29,182,168.58z   M195,290h40v40h-40V290z"/>















</svg>
